<svg xmlns="http://www.w3.org/2000/svg" version="1.1" xmlns:xlink="http://www.w3.org/1999/xlink" xmlns:svgjs="http://svgjs.dev/svgjs" width="1000" height="1000" viewBox="0 0 1000 1000"><rect width="1000" height="1000" fill="#070072"></rect><g transform="matrix(0.7,0,0,0.7,149.57576649467654,429.4068190153325)"><svg viewBox="0 0 396 80" data-background-color="#070072" preserveAspectRatio="xMidYMid meet" height="202" width="1000" xmlns="http://www.w3.org/2000/svg" xmlns:xlink="http://www.w3.org/1999/xlink"><defs></defs><g id="tight-bounds" transform="matrix(1,0,0,1,0.2399949544401352,-0.06043508646814644)"><svg viewBox="0 0 395.52 80.12087017293632" height="80.12087017293632" width="395.52"><g><svg viewBox="0 0 444.1802615298616 89.97802656607743" height="80.12087017293632" width="395.52"><g transform="matrix(1,0,0,1,48.66026152986154,12.435458085470913)"><svg viewBox="0 0 395.52000000000004 65.1071103951356" height="65.1071103951356" width="395.52000000000004"><g><svg viewBox="0 0 395.52000000000004 65.1071103951356" height="65.1071103951356" width="395.52000000000004"><g><svg viewBox="0 0 395.52000000000004 36.775694080670505" height="36.775694080670505" width="395.52000000000004"><g transform="matrix(1,0,0,1,0,0)"><svg width="395.52000000000004" viewBox="3.950000047683716 -34.900001525878906 381.7699890136719 35.5" height="36.775694080670505" data-palette-color="#ffffff"><path d="M3.95 0L3.95-34.3 28.25-34.3 28.25-30.15 8.7-30.15 8.7-19.25 26.45-19.25 26.45-15.1 8.7-15.1 8.7 0 3.95 0ZM35.15 0L35.15-34.3 39.9-34.3 39.9 0 35.15 0ZM48.4 0L48.4-34.3 66.25-34.3Q71.4-34.3 74.15-31.65 76.9-29 76.9-24.55L76.9-24.55Q76.9-21.05 75.22-18.5 73.55-15.95 70.59-14.85L70.59-14.85 78.5 0 73.19 0 65.75-14.15 53.15-14.15 53.15 0 48.4 0ZM53.15-18.3L66-18.3Q68.8-18.3 70.44-19.95 72.09-21.6 72.09-24.5L72.09-24.5Q72.09-27.2 70.55-28.68 69-30.15 66-30.15L66-30.15 53.15-30.15 53.15-18.3ZM97.14 0.6Q90.89 0.6 86.94-1.9 82.99-4.4 82.99-9.7L82.99-9.7 83.04-10.7 87.74-10.7Q87.64-10 87.64-9.65L87.64-9.65Q87.64-6.6 90.17-5.03 92.69-3.45 96.89-3.45L96.89-3.45Q101.59-3.45 104.09-4.93 106.59-6.4 106.59-9.15L106.59-9.15Q106.59-11 105.29-12.23 103.99-13.45 102.02-14.15 100.04-14.85 96.69-15.7L96.69-15.7Q92.54-16.75 89.99-17.73 87.44-18.7 85.64-20.63 83.84-22.55 83.84-25.7L83.84-25.7Q83.84-30.2 87.59-32.55 91.34-34.9 97.19-34.9L97.19-34.9Q103.04-34.9 106.69-32.52 110.34-30.15 110.34-25.25L110.34-25.25 110.34-24.65 105.69-24.65 105.69-25.4Q105.69-27.95 103.37-29.4 101.04-30.85 97.34-30.85L97.34-30.85Q93.39-30.85 91.02-29.65 88.64-28.45 88.64-26.05L88.64-26.05Q88.64-24.3 89.92-23.2 91.19-22.1 93.07-21.43 94.94-20.75 98.29-19.9L98.29-19.9Q102.44-18.85 105.07-17.85 107.69-16.85 109.52-14.93 111.34-13 111.34-9.9L111.34-9.9Q111.34-4.4 107.52-1.9 103.69 0.6 97.14 0.6L97.14 0.6ZM126.79 0L126.79-30.15 114.99-30.15 114.99-34.3 143.34-34.3 143.34-30.15 131.54-30.15 131.54 0 126.79 0ZM174.04 0.6Q167.79 0.6 163.84-1.9 159.89-4.4 159.89-9.7L159.89-9.7 159.94-10.7 164.64-10.7Q164.54-10 164.54-9.65L164.54-9.65Q164.54-6.6 167.06-5.03 169.59-3.45 173.79-3.45L173.79-3.45Q178.49-3.45 180.99-4.93 183.49-6.4 183.49-9.15L183.49-9.15Q183.49-11 182.19-12.23 180.89-13.45 178.91-14.15 176.94-14.85 173.59-15.7L173.59-15.7Q169.44-16.75 166.89-17.73 164.34-18.7 162.54-20.63 160.74-22.55 160.74-25.7L160.74-25.7Q160.74-30.2 164.49-32.55 168.24-34.9 174.09-34.9L174.09-34.9Q179.94-34.9 183.59-32.52 187.24-30.15 187.24-25.25L187.24-25.25 187.24-24.65 182.59-24.65 182.59-25.4Q182.59-27.95 180.26-29.4 177.94-30.85 174.24-30.85L174.24-30.85Q170.29-30.85 167.91-29.65 165.54-28.45 165.54-26.05L165.54-26.05Q165.54-24.3 166.81-23.2 168.09-22.1 169.96-21.43 171.84-20.75 175.19-19.9L175.19-19.9Q179.34-18.85 181.96-17.85 184.59-16.85 186.41-14.93 188.24-13 188.24-9.9L188.24-9.9Q188.24-4.4 184.41-1.9 180.59 0.6 174.04 0.6L174.04 0.6ZM203.68 0L203.68-30.15 191.88-30.15 191.88-34.3 220.23-34.3 220.23-30.15 208.43-30.15 208.43 0 203.68 0ZM225.28 0L225.28-34.3 251.68-34.3 251.68-30.15 230.03-30.15 230.03-19.6 249.48-19.6 249.48-15.45 230.03-15.45 230.03-4.15 251.98-4.15 251.98 0 225.28 0ZM258.63 0L258.63-34.3 275.33-34.3Q280.48-34.3 283.23-31.45 285.98-28.6 285.98-23.85L285.98-23.85Q285.98-19 283.1-16.07 280.23-13.15 275.33-13.15L275.33-13.15 263.38-13.15 263.38 0 258.63 0ZM263.38-17.3L275.08-17.3Q277.88-17.3 279.53-19.05 281.18-20.8 281.18-23.8L281.18-23.8Q281.18-26.85 279.63-28.5 278.08-30.15 275.08-30.15L275.08-30.15 263.38-30.15 263.38-17.3ZM307.48 0.6Q299.33 0.6 294.85-3.88 290.38-8.35 290.38-17.15L290.38-17.15Q290.38-25.95 294.85-30.43 299.33-34.9 307.48-34.9L307.48-34.9Q315.68-34.9 320.15-30.43 324.63-25.95 324.63-17.15L324.63-17.15Q324.63-8.4 320.15-3.9 315.68 0.6 307.48 0.6L307.48 0.6ZM307.48-3.45Q313.43-3.45 316.58-6.68 319.73-9.9 319.73-16.95L319.73-16.95 319.73-17.15Q319.68-24.3 316.53-27.58 313.38-30.85 307.48-30.85L307.48-30.85Q301.63-30.85 298.48-27.58 295.33-24.3 295.28-17.15L295.28-17.15 295.28-16.95Q295.28-9.9 298.43-6.68 301.58-3.45 307.48-3.45L307.48-3.45ZM330.87 0L330.87-34.3 355.17-34.3 355.17-30.15 335.62-30.15 335.62-19.25 353.37-19.25 353.37-15.1 335.62-15.1 335.62 0 330.87 0ZM361.42 0L361.42-34.3 385.72-34.3 385.72-30.15 366.17-30.15 366.17-19.25 383.92-19.25 383.92-15.1 366.17-15.1 366.17 0 361.42 0Z" opacity="1" transform="matrix(1,0,0,1,0,0)" fill="#ffffff" class="undefined-text-0" data-fill-palette-color="primary" id="text-0"></path></svg></g></svg></g><g transform="matrix(1,0,0,1,0,45.45755283645887)"><svg viewBox="0 0 232.20979200000002 19.64955755867673" height="19.64955755867673" width="232.20979200000002"><g transform="matrix(1,0,0,1,0,0)"><svg width="232.20979200000002" viewBox="0.5 -36 430.7200012207031 36.45000076293945" height="19.64955755867673" data-palette-color="#ffffff"><path d="M15.8-2.55Q15.7-1.1 14.28-0.55 12.85 0 9.15 0 5.45 0 2.98-0.68 0.5-1.35 0.5-2.4L0.5-2.4Q0.5-3.6 4.95-17.73 9.4-31.85 10.05-34L10.05-34Q10.3-34.65 14.08-35.08 17.85-35.5 22.18-35.5 26.5-35.5 26.95-34L26.95-34Q36.4-2.6 36.4-2.1 36.4-1.6 35.8-1.1L35.8-1.1Q34.4 0 30.25 0L30.25 0Q21.4 0 21.2-2.1L21.2-2.1 20.85-5.35 16.05-5.35 15.8-2.55ZM17.1-14.85L19.8-14.85 19.05-23.85 17.95-23.85 17.1-14.85ZM61 0.4L61 0.4Q59.3 0.4 57.85 0.05 56.4-0.3 54.82-1.43 53.25-2.55 52.15-4.4L52.15-4.4Q49.65-8.6 49.65-17.05L49.65-17.05Q49.65-21.7 50.9-25.25 52.15-28.8 54.05-30.78 55.95-32.75 58.6-34 61.25-35.25 63.55-35.63 65.84-36 68.45-36L68.45-36Q74.45-36 76.9-34.98 79.34-33.95 79.34-31.05L79.34-31.05Q79.34-28.75 78.5-26.08 77.65-23.4 76-23.4L76-23.4Q75.59-23.4 72.59-24.18 69.59-24.95 68.09-24.95L68.09-24.95Q63.8-24.95 63.8-17.7L63.8-17.7Q63.8-14.05 64.8-12.28 65.8-10.5 67.3-10.3L67.3-10.3 67.3-14.8Q67.3-16.05 69.84-17.1 72.4-18.15 74.75-18.15 77.09-18.15 78.17-17.85 79.25-17.55 79.65-17L79.65-17Q80.34-16.1 80.34-15.4L80.34-15.4 80.34-1.55Q80.34-0.9 77.72-0.5 75.09-0.1 72.27-0.1 69.45-0.1 68.7-0.38 67.95-0.65 67.84-1.9L67.84-1.9 67.5-4.85 67.09-4.85Q66.75-2.7 65.32-1.15 63.9 0.4 61 0.4ZM100.74 0.45L100.74 0.45Q96.59 0.45 93.62-0.33 90.64-1.1 88.14-3.1L88.14-3.1Q83.09-7.05 83.09-18.25L83.09-18.25Q83.09-22.95 84.47-26.45 85.84-29.95 88.29-32L88.29-32Q93.09-36 100.74-36L100.74-36Q104.69-36 107.62-35.3 110.54-34.6 113.14-32.75L113.14-32.75Q118.39-28.95 118.39-18.25L118.39-18.25Q118.39-8.65 113.64-4.1 108.89 0.45 100.74 0.45ZM99.09-8.13Q99.69-7.4 100.74-7.4 101.79-7.4 102.39-8.13 102.99-8.85 103.39-11.23 103.79-13.6 103.79-17.85 103.79-22.1 103.39-24.4 102.99-26.7 102.39-27.4 101.79-28.1 100.74-28.1 99.69-28.1 99.09-27.4 98.49-26.7 98.09-24.4 97.69-22.1 97.69-17.85 97.69-13.6 98.09-11.23 98.49-8.85 99.09-8.13ZM138.54 0.45L138.54 0.45Q134.39 0.45 131.42-0.33 128.44-1.1 125.94-3.1L125.94-3.1Q120.89-7.05 120.89-18.25L120.89-18.25Q120.89-22.95 122.27-26.45 123.64-29.95 126.09-32L126.09-32Q130.89-36 138.54-36L138.54-36Q142.49-36 145.42-35.3 148.34-34.6 150.94-32.75L150.94-32.75Q156.19-28.95 156.19-18.25L156.19-18.25Q156.19-8.65 151.44-4.1 146.69 0.45 138.54 0.45ZM136.89-8.13Q137.49-7.4 138.54-7.4 139.59-7.4 140.19-8.13 140.79-8.85 141.19-11.23 141.59-13.6 141.59-17.85 141.59-22.1 141.19-24.4 140.79-26.7 140.19-27.4 139.59-28.1 138.54-28.1 137.49-28.1 136.89-27.4 136.29-26.7 135.89-24.4 135.49-22.1 135.49-17.85 135.49-13.6 135.89-11.23 136.29-8.85 136.89-8.13ZM175.39 0L175.39 0 163.59 0Q161.14 0 160.29-0.35 159.44-0.7 159.44-1.5L159.44-1.5 159.44-33.05Q159.44-34.35 160.54-34.93 161.64-35.5 164.34-35.5L164.34-35.5 175.59-35.5Q185.19-35.5 188.84-31.73 192.49-27.95 192.49-18 192.49-8.05 188.69-4.03 184.89 0 175.39 0ZM174.99-28.05L174.99-28.05Q173.79-28.05 173.39-27.85L173.39-27.85 173.39-7.65 175.29-7.45Q176.79-7.45 177.56-9.85 178.34-12.25 178.34-18.15 178.34-24.05 177.54-26.05 176.74-28.05 174.99-28.05ZM232.68-2.1Q231.18-1 228.51-0.28 225.83 0.45 221.61 0.45 217.38 0.45 213.58-0.25 209.78-0.95 208.13-1.8 206.48-2.65 206.48-3.45L206.48-3.45Q206.48-6.25 207.28-9.28 208.08-12.3 209.18-12.3L209.18-12.3Q209.38-12.3 213.33-10.95 217.28-9.6 219.28-9.6 221.28-9.6 221.88-10.03 222.48-10.45 222.48-11.25 222.48-12.05 221.38-12.68 220.28-13.3 218.63-13.78 216.98-14.25 215.06-15.15 213.13-16.05 211.48-17.15 209.83-18.25 208.73-20.28 207.63-22.3 207.63-24.9L207.63-24.9Q207.63-36 220.88-36L220.88-36Q225.83-36 229.43-35.38 233.03-34.75 234.51-33.98 235.98-33.2 235.98-32.45L235.98-32.45Q235.98-29.85 234.76-26.85 233.53-23.85 232.38-23.85L232.38-23.85Q232.18-23.85 231.08-24.3L231.08-24.3Q227.78-25.75 225.61-25.75 223.43-25.75 222.66-25.35 221.88-24.95 221.88-24.13 221.88-23.3 222.98-22.78 224.08-22.25 225.71-21.83 227.33-21.4 229.26-20.53 231.18-19.65 232.83-18.48 234.48-17.3 235.58-15.15 236.68-13 236.68-10.15L236.68-10.15Q236.68-7.15 235.13-4.7L235.13-4.7Q234.18-3.2 232.68-2.1ZM261.18-1.2Q261.18-0.65 258.11-0.33 255.03 0 251.96 0 248.88 0 248.06-0.28 247.23-0.55 247.23-1.2L247.23-1.2 247.23-22.7 240.28-22.7Q239.73-22.7 239.33-24.1 238.93-25.5 238.93-28.28 238.93-31.05 239.53-33.27 240.13-35.5 241.13-35.5L241.13-35.5 268.18-35.5Q268.93-35.5 269.21-34.1 269.48-32.7 269.48-30.05 269.48-27.4 268.93-25.05 268.38-22.7 267.43-22.7L267.43-22.7 261.18-22.7 261.18-1.2ZM297.83 0L297.83 0 276.63 0Q274.18 0 273.33-0.35 272.48-0.7 272.48-1.45L272.48-1.45 272.48-33.1Q272.48-34.4 273.65-34.95 274.83-35.5 277.88-35.5L277.88-35.5 297.98-35.5Q299.03-35.5 299.03-32.02 299.03-28.55 298.58-26.73 298.13-24.9 297.38-24.9L297.38-24.9Q294.13-24.9 286.43-25.55L286.43-25.55 286.43-22.2Q293.83-22.5 296.08-22.5L296.08-22.5Q297.43-22.5 297.43-19.35 297.43-16.2 296.9-14.58 296.38-12.95 295.48-12.95L295.48-12.95 286.43-13.15 286.43-9.95Q295.13-10.6 298.43-10.6L298.43-10.6Q299.48-10.6 299.48-7.1 299.48-3.6 299.03-1.8 298.58 0 297.83 0ZM316.88-9.05L316.88-1.45Q316.88-0.8 313.83-0.4 310.78 0 307.73 0 304.68 0 303.83-0.35 302.98-0.7 302.98-1.45L302.98-1.45 302.98-33.6Q302.98-36 317.38-36L317.38-36Q326.08-36 328.88-34.8L328.88-34.8Q332.28-33.4 333.48-31L333.48-31Q335.08-27.9 335.08-23.05L335.08-23.05Q335.08-16.4 332.78-13.4L332.78-13.4Q331.13-11.2 329.48-10.55 327.83-9.9 326.75-9.63 325.68-9.35 324.08-9.2L324.08-9.2Q321.88-9 318.08-9L318.08-9 316.88-9.05ZM316.93-27.6L316.93-17.35 318.13-17.35Q319.08-17.35 319.63-17.63 320.18-17.9 320.6-19.13 321.03-20.35 321.03-22.58 321.03-24.8 320.55-25.98 320.08-27.15 319.6-27.38 319.13-27.6 318.48-27.6L318.48-27.6 316.93-27.6ZM355.22 0.45L355.22 0.45Q351.07 0.45 348.1-0.33 345.12-1.1 342.62-3.1L342.62-3.1Q337.57-7.05 337.57-18.25L337.57-18.25Q337.57-22.95 338.95-26.45 340.32-29.95 342.77-32L342.77-32Q347.57-36 355.22-36L355.22-36Q359.17-36 362.1-35.3 365.02-34.6 367.62-32.75L367.62-32.75Q372.87-28.95 372.87-18.25L372.87-18.25Q372.87-8.65 368.12-4.1 363.37 0.45 355.22 0.45ZM353.57-8.13Q354.17-7.4 355.22-7.4 356.27-7.4 356.87-8.13 357.47-8.85 357.87-11.23 358.27-13.6 358.27-17.85 358.27-22.1 357.87-24.4 357.47-26.7 356.87-27.4 356.27-28.1 355.22-28.1 354.17-28.1 353.57-27.4 352.97-26.7 352.57-24.4 352.17-22.1 352.17-17.85 352.17-13.6 352.57-11.23 352.97-8.85 353.57-8.13ZM390.07-1.45Q390.07-0.7 386.85-0.35 383.62 0 380.72 0 377.82 0 376.97-0.35 376.12-0.7 376.12-1.45L376.12-1.45 376.12-33.15Q376.12-34.45 377.42-35 378.72-35.55 382.32-35.55L382.32-35.55 400.87-35.55Q401.92-35.55 401.92-31.78 401.92-28 401.45-26.03 400.97-24.05 400.22-24.05L400.22-24.05 390.07-24.55 390.07-21.15Q396.72-21.45 398.97-21.45L398.97-21.45Q399.72-21.45 400-20.65 400.27-19.85 400.27-17.57 400.27-15.3 399.77-13.23 399.27-11.15 398.37-11.15L398.37-11.15 390.07-11.45 390.07-1.45ZM419.37-1.45Q419.37-0.7 416.14-0.35 412.92 0 410.02 0 407.12 0 406.27-0.35 405.42-0.7 405.42-1.45L405.42-1.45 405.42-33.15Q405.42-34.45 406.72-35 408.02-35.55 411.62-35.55L411.62-35.55 430.17-35.55Q431.22-35.55 431.22-31.78 431.22-28 430.74-26.03 430.27-24.05 429.52-24.05L429.52-24.05 419.37-24.55 419.37-21.15Q426.02-21.45 428.27-21.45L428.27-21.45Q429.02-21.45 429.29-20.65 429.57-19.85 429.57-17.57 429.57-15.3 429.07-13.23 428.57-11.15 427.67-11.15L427.67-11.15 419.37-11.45 419.37-1.45Z" opacity="1" transform="matrix(1,0,0,1,0,0)" fill="#ffffff" class="undefined-text-1" data-fill-palette-color="secondary" id="text-1"></path></svg></g></svg></g></svg></g></svg></g><g><svg viewBox="0 0 39.978402774073174 89.97802656607743" height="89.97802656607743" width="39.978402774073174"><g><svg xmlns="http://www.w3.org/2000/svg" xmlns:xlink="http://www.w3.org/1999/xlink" version="1.1" x="0" y="0" viewBox="32.22789764404297 10 35.54503631591797 80" enable-background="new 0 0 100 100" xml:space="preserve" height="89.97802656607743" width="39.978402774073174" class="icon-icon-0" data-fill-palette-color="accent" id="icon-0"><g fill="#b20000" data-fill-palette-color="accent"><path d="M50 68.734c-7.942 0-14.38-4.514-14.38 4.658C35.62 82.565 42.058 90 50 90c7.942 0 14.38-7.435 14.38-16.608C64.38 64.22 57.942 68.734 50 68.734z" fill="#b20000" data-fill-palette-color="accent"></path><path d="M49.977 10C34.773 10 29.702 40.074 33.37 48.481c4.065 9.317 1.679 14.582 16.608 14.582 14.929 0 12.572-5.671 16.608-14.582C70.369 40.126 65.182 10 49.977 10z" fill="#b20000" data-fill-palette-color="accent"></path></g></svg></g></svg></g></svg></g></svg><rect width="395.52" height="80.12087017293632" fill="none" stroke="none" visibility="hidden"></rect></g></svg></g></svg>